<svg width="804" height="86" viewBox="0 0 804 86" fill="none" xmlns="http://www.w3.org/2000/svg">
<path d="M10.5086 42.864C4.17262 48.624 0.620625 56.112 3.50062 64.272C6.38062 72.816 15.0206 77.904 22.9886 80.784C31.9166 83.952 41.6126 85.104 50.9246 85.2C60.4286 85.2 69.8366 84.336 79.0526 82.608C88.5566 80.688 97.7726 78 106.797 74.544C115.725 71.184 124.269 67.056 132.525 62.256C140.589 57.648 148.365 52.368 155.469 46.224C158.925 43.248 162.285 40.08 165.165 36.528C168.045 33.072 170.637 29.232 172.269 25.008C173.805 20.88 174.381 15.984 172.269 11.952C170.253 8.20799 166.413 6.192 162.381 5.616C157.773 4.944 152.973 5.712 148.461 7.056C143.949 8.304 139.533 10.128 135.309 12.24C131.085 14.256 126.957 16.656 123.021 19.152C121.005 20.4 119.085 21.648 117.165 22.992C116.205 23.664 114.189 25.2 111.693 26.736C112.749 25.584 113.901 24.528 114.957 23.376C119.565 18.672 124.173 14.064 128.877 9.36C130.029 8.20799 135.117 2.928 135.693 2.44799C136.461 1.776 136.269 1.392 136.077 1.2C135.501 0.719999 134.829 1.392 134.445 1.776C133.197 2.832 121.677 14.544 117.069 19.248C114.669 21.648 112.365 24.048 110.061 26.448C109.485 27.024 108.237 28.176 107.661 28.752C107.661 28.752 103.821 28.08 102.285 27.792C89.7086 25.68 76.5566 26.352 63.4046 27.12C50.7326 27.792 38.0606 28.944 26.1566 33.552C20.4926 35.76 15.0206 38.736 10.5086 42.864ZM106.317 30.192C103.917 32.88 101.229 35.184 98.4446 37.584C92.2046 42.864 85.8686 48.624 80.6846 55.344C80.2046 55.92 78.2846 58.032 79.7246 58.512C80.3006 58.8 80.8766 58.224 81.2606 57.84C85.2926 54.096 89.0366 50.064 93.3566 45.552C98.3486 40.56 102.957 35.28 108.813 30.864C110.061 31.152 111.597 32.016 112.365 33.168C112.749 33.648 112.941 34.416 113.325 34.8C113.901 35.28 114.477 34.608 114.381 34.032C114.189 33.456 113.901 32.784 113.517 32.304C112.749 31.152 111.501 30.384 110.253 29.808C112.653 27.792 115.341 26.064 117.933 24.24C123.309 20.592 128.877 17.136 134.637 14.16C140.493 11.184 146.637 8.592 153.069 7.44C158.541 6.384 165.741 6.192 169.773 10.8C173.901 15.6 172.077 22.704 169.485 27.696C166.605 33.264 162.285 38.064 157.677 42.288C153.069 46.608 147.981 50.544 142.797 54.096C131.853 61.584 120.141 67.728 107.853 72.624C95.3726 77.52 82.3166 80.976 68.9726 82.704C56.0126 84.336 42.3806 84.432 29.6126 81.264C23.4686 79.728 17.4206 77.424 12.3326 73.584C7.53262 69.84 3.69262 64.368 3.98062 58.032C4.26862 51.984 8.10862 46.704 12.6206 42.864C17.3246 38.928 22.9886 36.144 28.6526 34.128C34.8926 31.92 41.2286 30.576 47.7566 29.808C54.0926 29.04 60.4286 28.56 66.6686 28.368C79.6286 27.792 93.1646 27.12 106.317 30.192ZM167.128 48.144C167.224 47.664 167.512 47.088 167.704 46.8C168.376 45.84 169.048 44.88 169.72 43.92C171.544 41.712 173.656 39.696 175.768 37.68C176.056 37.392 176.44 37.104 176.728 36.816C177.016 36.528 177.016 36.144 176.728 35.856C176.248 35.376 175.768 35.952 175.384 36.24C173.56 37.872 171.736 39.504 170.104 41.328C168.856 42.768 167.608 44.208 166.648 45.84C166.264 46.512 165.88 47.184 165.784 47.856C165.592 48.816 166.168 49.584 167.128 49.584C168.664 49.584 170.968 48.24 172.12 47.664C175.672 45.648 179.224 43.632 182.776 41.616C185.944 39.888 187.192 39.024 188.056 38.544C188.344 38.448 188.824 37.392 187.576 37.2C187.576 37.2 184.312 39.12 181.144 40.944C177.688 42.864 174.328 44.784 170.968 46.608C169.912 47.184 168.088 48.144 167.128 48.144ZM182.008 27.888C181.528 27.984 181.24 28.368 181.432 28.944C181.528 29.232 181.912 29.328 182.2 29.232C182.488 29.136 182.776 29.04 182.776 28.464C182.776 28.08 182.488 27.792 182.008 27.888ZM206.171 37.584C207.227 40.944 210.683 42.384 213.179 42.672C218.459 43.152 223.835 40.848 229.115 38.736C229.787 38.544 230.459 37.488 229.115 37.2C227.771 37.584 225.371 38.64 223.643 39.216C219.995 40.464 216.155 41.808 212.027 40.944C209.819 40.368 207.995 38.928 207.227 36.432C209.531 33.84 212.123 30.576 214.043 27.696C215.003 26.256 216.635 22.992 216.635 21.648C216.539 20.688 215.963 20.112 215.099 20.208C214.043 20.304 212.891 21.072 212.315 21.552C209.723 23.664 207.995 26.064 206.555 29.232C205.595 31.44 205.307 34.032 205.691 35.952C200.507 41.712 194.747 47.184 188.795 52.08C186.395 54.096 183.803 56.016 181.115 57.744C180.251 58.224 177.275 59.952 176.411 59.472C175.355 58.512 176.987 54.576 180.923 48.624C182.939 45.36 185.339 42.384 187.547 39.312C188.411 38.16 189.275 37.008 190.043 35.76C190.523 35.088 190.907 33.744 189.851 33.744C188.987 33.744 189.083 34.8 188.795 35.376C187.547 37.2 186.203 38.832 184.859 40.56C182.267 44.016 179.675 47.568 177.563 51.312C176.219 53.424 174.587 56.688 174.779 59.088C174.875 60.24 175.643 60.912 176.891 60.912C180.059 61.008 184.859 56.976 188.219 54.384C194.555 49.392 203.963 39.984 206.171 37.584ZM206.939 34.512C206.939 31.056 208.475 28.272 210.587 25.392C211.547 24.048 213.563 21.936 215.195 21.648C215.195 23.28 213.659 25.584 212.603 27.312C210.971 29.712 207.899 33.36 206.939 34.512ZM238.198 38.64C236.662 40.464 235.318 42.192 234.166 43.824C233.494 44.784 232.246 46.704 231.958 48.72C231.766 49.872 232.534 50.736 233.686 50.64C234.742 50.544 235.798 50.064 236.47 49.68C237.43 49.104 238.198 48.72 239.062 48.144C243.574 45.264 247.99 42.384 252.502 39.408C253.27 38.928 253.558 38.736 253.846 38.544C254.518 38.064 254.038 37.488 253.366 37.2C253.366 37.2 252.598 37.68 252.406 37.776C249.334 39.792 245.494 42.288 242.422 44.304C240.406 45.648 238.582 46.8 236.47 48.144C235.894 48.528 234.646 49.2 233.782 49.296C233.398 49.296 233.302 49.2 233.302 48.816C233.494 47.856 234.358 46.224 234.838 45.456C235.894 43.728 237.142 42 238.582 40.464C239.734 39.216 240.886 38.064 242.038 36.816C242.23 36.624 242.518 36.336 242.71 36.144C242.902 35.856 242.902 35.472 242.71 35.184C242.518 34.896 242.134 34.704 241.75 34.896C241.27 35.088 240.79 35.376 240.31 35.664C237.334 37.488 234.262 39.408 231.094 41.04C230.134 41.52 229.078 42 228.118 42.48C227.542 42.768 226.582 43.056 225.814 43.152C226.006 42.288 226.678 41.328 227.062 40.944C228.598 39.12 230.518 37.68 232.63 36.72C233.59 36.336 234.55 36.048 235.126 36.144C235.51 36.24 235.51 36.336 235.51 36.624C235.51 37.104 235.126 37.584 235.798 37.872C236.086 38.064 236.566 37.776 236.662 37.488C236.758 37.2 236.854 36.912 236.854 36.624C236.854 35.76 236.566 35.184 235.798 34.896C235.03 34.704 233.686 34.608 231.958 35.472C229.654 36.624 227.638 38.16 226.006 40.08C225.622 40.56 224.758 41.712 224.566 42.864C224.374 43.728 224.95 44.4 225.814 44.4C227.542 44.496 230.71 42.768 231.67 42.288C234.07 40.944 236.662 39.504 238.198 38.64ZM247.599 45.264C249.327 43.44 251.343 41.232 253.071 39.504C254.703 37.776 256.335 36.048 258.063 34.32C258.543 33.84 259.311 33.072 258.639 32.496C258.159 32.208 257.391 33.072 256.911 33.552C254.607 35.856 252.303 38.16 250.095 40.464C248.175 42.48 246.447 44.4 244.623 46.416C244.143 46.992 242.895 48.048 243.567 48.912C244.047 49.488 244.911 48.912 245.487 48.528C248.943 46.032 252.399 43.632 256.047 41.424C257.295 40.56 260.175 38.928 260.271 38.832C259.311 40.56 257.775 43.152 257.199 45.264C256.911 46.32 257.487 47.088 258.639 46.992C261.327 46.992 266.223 44.112 269.871 42.096C272.463 40.56 272.943 40.176 275.631 38.64C275.919 38.448 276.591 37.296 275.151 37.2C275.151 37.2 272.943 38.544 271.215 39.6C268.527 41.232 265.839 42.768 262.959 44.112C261.711 44.592 259.503 45.552 258.639 45.552C258.831 44.976 259.695 43.056 259.983 42.576C260.655 41.232 261.807 39.312 261.999 38.448C262.191 37.68 261.711 37.008 260.847 37.2C258.639 37.584 251.151 42.768 247.599 45.264ZM302.853 37.2L302.181 37.584C295.653 41.712 289.029 44.496 281.541 46.512C279.813 46.992 277.989 47.376 276.261 47.76C277.221 46.128 277.893 44.592 278.085 42.864C278.181 41.04 277.701 39.312 276.837 37.68C277.029 37.488 280.965 34.608 282.789 33.264C286.245 30.672 292.005 26.544 293.061 23.568C293.541 22.224 293.349 21.072 291.717 20.496C289.413 19.632 285.861 20.4 283.557 21.168C279.333 22.704 270.309 26.832 272.613 32.592C273.093 34.032 274.149 35.952 274.533 36.528C276.069 38.928 277.029 40.752 276.549 43.632C276.165 45.168 275.205 46.8 274.245 48.144C270.117 48.72 264.261 49.584 260.229 50.16C257.829 50.544 255.333 50.928 253.701 52.272C252.357 53.424 251.685 54.768 252.069 56.592C252.357 57.936 253.221 58.896 254.469 59.472C257.445 60.912 261.765 59.76 264.645 58.128C268.485 55.92 272.325 52.368 275.109 49.392C283.365 47.76 290.853 45.36 297.765 41.712C299.685 40.752 301.413 39.792 303.237 38.64C303.909 38.256 303.813 37.392 302.853 37.2ZM276.165 36.528C275.397 35.184 274.533 33.84 273.957 32.4C271.461 25.488 288.261 20.112 291.333 21.648C291.909 21.936 292.197 22.32 291.813 23.088C290.469 25.68 284.901 29.904 282.405 31.728C280.389 33.36 278.757 34.608 276.165 36.528ZM263.013 57.36C260.325 58.704 256.293 59.856 254.085 57.648C253.029 56.592 253.221 54.864 253.989 53.904C255.909 51.408 261.573 51.312 264.837 50.832C267.333 50.448 272.613 49.776 272.901 49.776C270.789 51.888 266.661 55.536 263.013 57.36ZM298.443 44.304C300.651 41.808 306.507 35.184 310.443 30.96C314.571 26.544 318.603 22.032 322.827 17.616C326.187 14.16 329.643 10.704 333.099 7.344C334.155 6.288 335.499 4.848 336.459 3.792C336.747 3.504 336.843 2.928 336.459 2.64C336.171 2.44799 335.883 2.544 335.595 2.736C334.635 3.696 333.771 4.65599 332.811 5.616C327.915 10.32 323.115 15.12 318.507 20.112C311.499 27.696 304.587 35.28 297.675 42.864C296.235 44.496 294.795 46.128 293.355 47.76C292.971 48.144 292.395 48.816 292.875 49.296C293.259 49.68 293.835 49.488 294.219 49.2C295.275 48.336 296.331 47.472 297.483 46.704C300.267 44.688 303.147 42.864 306.123 41.232C306.699 40.944 307.659 40.464 308.235 40.368C307.851 41.712 307.755 42.48 307.755 43.344C307.755 44.688 308.619 45.552 309.963 45.552C311.307 45.648 313.899 44.688 315.819 43.92C320.235 42.192 324.363 40.368 328.779 38.64C329.547 38.352 329.835 37.392 328.683 37.2C328.683 37.2 327.627 37.584 327.243 37.776C323.211 39.408 319.755 40.752 315.627 42.384C313.611 43.248 310.827 44.208 309.963 44.208C309.483 44.208 309.195 44.016 309.195 43.44C309.195 42.384 309.579 41.328 309.675 40.176C309.675 39.408 309.195 38.928 308.523 38.928C306.123 39.024 301.227 42.192 298.443 44.304ZM344.961 35.568C344.193 35.856 343.617 36.24 342.657 36.432C338.145 38.544 334.305 40.752 330.081 42.864C328.449 43.632 325.281 45.264 324.897 44.976C324.417 44.688 327.393 41.136 328.929 39.312C329.505 38.544 330.465 37.584 331.137 36.816C331.521 36.432 331.809 35.856 331.521 35.472C331.329 35.184 330.753 34.992 330.369 35.376C327.297 38.448 325.185 41.424 324.513 42.576C324.033 43.44 323.457 44.784 323.553 45.456C323.649 46.032 324.417 46.416 325.281 46.416C326.721 46.128 329.697 44.592 330.657 44.112C335.169 41.808 337.473 40.56 342.369 38.352C342.273 38.448 338.625 42 337.089 43.824C332.961 48.24 329.121 52.56 325.377 57.168C324.417 58.032 323.649 58.992 322.881 60.048C322.689 60.336 322.497 60.816 322.305 61.296C322.305 61.68 322.401 61.968 322.977 62.16C323.361 62.16 323.553 61.872 323.649 61.584C324.033 60.912 324.321 60.432 324.705 59.952C325.665 58.896 326.529 57.744 327.585 56.688C329.793 53.904 332.193 51.216 334.497 48.624C338.049 44.688 339.873 42.768 343.137 39.6C343.809 39.024 345.441 37.296 345.633 36.816C346.209 36.048 345.537 35.568 344.961 35.568ZM437.095 33.648C437.287 33.552 444.007 26.448 446.407 23.76C449.479 20.304 453.223 16.464 454.759 11.76C455.047 10.512 455.047 9.264 454.183 8.304C453.127 7.248 451.303 6.672 447.847 6.86399C443.431 7.152 439.111 8.016 434.311 9.07199C429.223 10.32 424.231 11.856 419.239 13.392C406.951 17.424 394.951 22.416 382.471 28.944C379.783 30.288 377.095 31.728 374.407 33.168C373.543 33.648 373.351 33.936 373.735 34.512C373.927 34.704 374.311 34.608 375.079 34.224C376.903 33.456 378.631 32.496 380.455 31.632C391.495 26.16 402.439 20.688 415.303 16.176C423.847 13.2 432.583 10.704 442.279 8.88C443.527 8.688 448.039 7.824 451.303 8.4C453.223 8.88 453.607 9.84 453.511 10.608C453.127 13.392 449.671 17.808 446.887 20.976C444.967 23.184 443.047 25.296 441.127 27.408C438.919 29.712 435.559 33.264 434.119 34.704C430.087 36.048 425.479 37.584 421.351 39.024C414.151 41.424 406.951 43.92 399.847 46.416C394.375 48.336 367.591 58.032 364.039 59.376C360.871 60.624 357.703 61.776 354.535 63.024C351.367 64.272 348.103 65.424 344.935 66.672C340.039 68.592 335.143 70.608 330.247 72.72C328.903 73.392 327.463 73.968 326.023 74.64C325.447 74.928 325.255 75.312 325.447 75.696C325.543 75.984 325.927 76.272 326.695 75.888C328.711 75.024 330.727 74.16 332.839 73.2C336.583 71.664 340.327 70.128 344.167 68.592C348.679 66.768 353.287 65.04 357.895 63.408C363.751 61.296 369.703 59.28 375.751 57.648C378.631 56.88 381.415 56.208 384.391 55.536C391.015 54.096 399.751 52.56 406.375 53.136C408.775 53.424 409.831 54.096 410.119 54.48C411.655 56.304 410.119 58.32 408.871 59.76C405.991 62.448 403.207 65.136 399.943 67.92C398.023 69.552 396.007 71.28 394.087 73.008C393.703 73.392 393.319 73.776 393.031 74.16C392.839 74.256 392.839 74.448 392.743 74.64C392.551 74.928 392.647 75.216 392.839 75.408C393.127 75.696 393.415 75.696 393.703 75.6C393.991 75.504 394.087 75.312 394.279 75.216C394.855 74.736 395.431 74.256 396.007 73.776C398.023 72.048 399.943 70.32 401.767 68.496C403.591 66.768 405.415 65.136 407.239 63.408C408.391 62.352 409.447 61.2 411.271 59.376C413.767 56.88 416.263 54.48 418.759 51.984C422.695 48.144 426.535 44.304 430.375 40.464C431.335 39.504 432.583 38.352 433.543 37.392C433.639 37.488 436.519 41.04 437.863 42.576C439.879 44.88 441.991 47.184 444.199 49.392C447.559 52.944 451.015 56.304 454.567 59.76C457.063 62.16 459.559 64.56 462.055 66.96C464.167 69.072 466.375 71.184 468.583 73.2C470.599 75.12 472.711 77.04 474.727 78.96C475.495 79.632 476.839 80.784 477.703 81.456C477.991 81.552 478.279 81.552 478.471 81.36C478.663 81.072 478.663 80.784 478.567 80.592C478.375 80.4 477.415 79.44 477.031 79.056C474.823 77.04 472.615 75.024 470.407 73.008C468.391 71.184 466.375 69.264 464.455 67.344C462.439 65.424 460.327 63.408 458.311 61.488C456.775 59.952 455.239 58.512 453.703 56.976C450.727 54 447.751 51.024 444.871 48.048C442.855 46.032 440.839 43.92 438.823 41.52C437.575 39.984 435.943 38.064 434.599 36.336C445.543 32.208 457.831 28.176 470.023 23.952C479.527 20.688 489.127 17.52 500.263 14.064C501.607 13.584 504.487 12.816 504.679 12.816C505.447 12.816 506.983 12.912 506.599 11.664C506.503 11.28 506.215 10.896 504.967 11.184C500.743 12.24 496.615 13.68 491.239 15.408C483.751 17.904 476.359 20.4 468.871 22.896C458.503 26.544 447.943 30 437.095 33.648ZM412.327 56.208C412.327 55.152 411.943 54.288 411.271 53.712C410.023 52.56 407.239 51.504 401.191 51.696C395.815 52.08 391.015 52.656 386.695 53.616C384.871 53.904 380.743 54.864 379.975 55.056C381.895 54.384 429.991 37.584 431.719 37.104C429.703 39.12 412.423 56.208 412.327 56.208ZM490.742 35.568C489.974 35.856 489.398 36.24 488.438 36.432C483.926 38.544 480.086 40.752 475.862 42.864C474.23 43.632 471.062 45.264 470.678 44.976C470.198 44.688 473.174 41.136 474.71 39.312C475.286 38.544 476.246 37.584 476.918 36.816C477.302 36.432 477.59 35.856 477.302 35.472C477.11 35.184 476.534 34.992 476.15 35.376C473.078 38.448 470.966 41.424 470.294 42.576C469.814 43.44 469.238 44.784 469.334 45.456C469.43 46.032 470.198 46.416 471.062 46.416C472.502 46.128 475.478 44.592 476.438 44.112C480.95 41.808 483.254 40.56 488.15 38.352C488.054 38.448 484.406 42 482.87 43.824C478.742 48.24 474.902 52.56 471.158 57.168C470.198 58.032 469.43 58.992 468.662 60.048C468.47 60.336 468.278 60.816 468.086 61.296C468.086 61.68 468.182 61.968 468.758 62.16C469.142 62.16 469.334 61.872 469.43 61.584C469.814 60.912 470.102 60.432 470.486 59.952C471.446 58.896 472.31 57.744 473.366 56.688C475.574 53.904 477.974 51.216 480.278 48.624C483.83 44.688 485.654 42.768 488.918 39.6C489.59 39.024 491.222 37.296 491.414 36.816C491.99 36.048 491.318 35.568 490.742 35.568ZM488.478 48.624C488.958 47.952 494.334 41.808 497.31 38.544C501.15 34.32 505.374 30.384 509.118 25.968C509.31 25.68 509.502 25.392 509.214 25.104C508.734 24.72 508.542 24.72 507.87 25.296C506.526 26.736 505.182 28.272 503.742 29.712C498.846 34.8 493.95 39.888 489.438 45.168C487.998 46.704 486.75 48.432 485.406 50.064C484.638 51.024 484.83 51.504 485.118 51.792C485.694 52.272 486.462 51.696 486.654 51.6C492.894 47.376 499.326 43.44 505.758 39.408C504.894 40.56 502.494 43.632 501.822 45.36C501.438 46.32 502.206 46.992 503.166 46.896C503.838 46.8 504.702 46.416 505.374 46.128C506.91 45.456 507.582 45.072 509.118 44.304C511.326 43.152 516.03 40.656 516.126 40.656C515.646 41.424 515.166 42.288 515.07 43.44C514.974 44.208 515.358 44.784 516.222 44.784C517.47 44.784 519.39 44.016 520.446 43.536C523.326 42 526.782 40.176 529.662 38.64C529.95 38.448 530.622 37.392 529.278 37.2C526.302 38.832 523.134 40.464 520.158 42C519.198 42.576 517.278 43.44 516.51 43.44C516.798 42.192 518.046 40.368 518.142 39.984C518.334 39.216 517.758 38.64 517.086 38.736C516.414 38.832 515.454 39.312 514.974 39.6C512.67 40.848 510.27 42.096 507.966 43.344C506.622 44.016 504.222 45.168 503.454 45.36C503.646 44.688 504.606 43.44 505.086 42.768C506.142 41.328 507.006 40.176 508.158 38.544C508.926 37.296 507.678 36.912 506.814 37.296C505.086 38.064 489.822 47.472 488.478 48.624ZM538.386 38.64C536.85 40.464 535.506 42.192 534.354 43.824C533.682 44.784 532.434 46.704 532.146 48.72C531.954 49.872 532.722 50.736 533.874 50.64C534.93 50.544 535.986 50.064 536.658 49.68C537.618 49.104 538.386 48.72 539.25 48.144C543.762 45.264 548.178 42.384 552.69 39.408C553.458 38.928 553.746 38.736 554.034 38.544C554.706 38.064 554.226 37.488 553.554 37.2C553.554 37.2 552.786 37.68 552.594 37.776C549.522 39.792 545.682 42.288 542.61 44.304C540.594 45.648 538.77 46.8 536.658 48.144C536.082 48.528 534.834 49.2 533.97 49.296C533.586 49.296 533.49 49.2 533.49 48.816C533.682 47.856 534.546 46.224 535.026 45.456C536.082 43.728 537.33 42 538.77 40.464C539.922 39.216 541.074 38.064 542.226 36.816C542.418 36.624 542.706 36.336 542.898 36.144C543.09 35.856 543.09 35.472 542.898 35.184C542.706 34.896 542.322 34.704 541.938 34.896C541.458 35.088 540.978 35.376 540.498 35.664C537.522 37.488 534.45 39.408 531.282 41.04C530.322 41.52 529.266 42 528.306 42.48C527.73 42.768 526.77 43.056 526.002 43.152C526.194 42.288 526.866 41.328 527.25 40.944C528.786 39.12 530.706 37.68 532.818 36.72C533.778 36.336 534.738 36.048 535.314 36.144C535.698 36.24 535.698 36.336 535.698 36.624C535.698 37.104 535.314 37.584 535.986 37.872C536.274 38.064 536.754 37.776 536.85 37.488C536.946 37.2 537.042 36.912 537.042 36.624C537.042 35.76 536.754 35.184 535.986 34.896C535.218 34.704 533.874 34.608 532.146 35.472C529.842 36.624 527.826 38.16 526.194 40.08C525.81 40.56 524.946 41.712 524.754 42.864C524.562 43.728 525.138 44.4 526.002 44.4C527.73 44.496 530.898 42.768 531.858 42.288C534.258 40.944 536.85 39.504 538.386 38.64ZM555.467 38.064C556.523 37.488 558.155 36.624 559.403 35.664C562.667 33.264 571.499 26.448 570.059 21.84C569.675 20.592 568.331 18.96 564.491 19.632C560.075 20.4 555.083 22.704 552.971 27.024C551.915 29.232 551.819 31.536 552.299 33.84C552.683 35.76 553.547 37.488 554.507 39.12C554.987 40.08 555.563 41.04 556.043 42.096C557.483 45.744 554.027 49.2 551.723 51.792C549.035 54.768 546.443 57.84 543.755 60.816C542.411 62.352 540.299 64.656 540.011 66.288C539.819 67.248 540.203 68.112 541.355 68.016C542.795 67.92 545.195 66.864 546.827 65.712C548.939 64.272 550.955 62.832 553.067 61.392C563.147 54.192 573.131 46.8 583.115 39.312C584.171 38.544 585.323 37.68 583.691 37.2C583.691 37.2 582.635 37.872 582.443 38.064C577.067 42 571.691 46.032 566.411 49.968C561.227 53.712 556.139 57.36 550.955 61.104C549.131 62.448 547.307 63.696 545.387 64.944C544.139 65.808 542.891 66.288 541.355 66.672C541.355 65.52 545.003 61.68 546.059 60.336C548.651 57.36 551.243 54.48 553.835 51.6C556.331 48.528 559.403 45.168 557.003 40.848C556.619 39.984 556.139 38.928 555.467 38.064ZM566.027 20.88C568.331 20.784 569.003 22.224 568.715 23.376C567.851 26.352 565.067 28.848 562.763 31.056C559.691 33.936 557.963 34.896 554.891 36.816C553.739 34.32 553.067 31.632 553.739 28.944C554.795 25.392 558.155 23.184 561.803 21.84C563.339 21.264 564.875 20.88 566.027 20.88ZM675.06 19.056C672.756 20.976 670.356 22.8 668.34 25.008C666.42 27.216 664.692 29.808 664.116 32.688C663.54 35.76 664.596 38.544 666.708 40.752C670.932 45.36 677.268 47.472 681.972 51.6C684.084 53.424 686.196 56.016 685.524 58.992C684.948 61.872 682.356 63.984 680.052 65.616C674.868 69.264 668.724 71.472 662.772 73.488C656.532 75.504 650.196 77.136 643.764 78.288C640.596 78.768 637.236 79.152 633.972 78.96C631.188 78.864 627.636 78.48 625.62 76.368C623.508 74.16 624.564 70.8 625.716 68.4C627.06 65.616 628.98 63.216 630.996 60.912C635.22 56.112 640.02 51.792 645.012 47.952C647.508 46.032 650.004 44.208 652.692 42.576C654.132 41.712 656.916 40.08 657.588 39.984C657.876 39.984 658.26 40.176 658.548 40.08C659.028 39.984 659.316 39.504 659.22 39.12C659.124 37.584 656.436 38.928 655.764 39.312C654.42 39.888 653.076 40.656 651.732 41.52C649.044 43.152 646.452 44.976 643.956 46.992C638.868 50.928 634.068 55.248 629.844 60.048C627.828 62.352 625.908 64.848 624.468 67.632C623.22 70.128 622.164 73.488 623.7 76.176C625.14 78.768 628.212 79.728 630.996 80.112C634.164 80.688 637.428 80.496 640.692 80.112C647.124 79.344 653.46 77.808 659.7 75.888C665.844 74.064 672.084 71.856 677.748 68.784C682.356 66.192 689.172 61.296 686.58 55.152C685.428 52.368 682.932 50.352 680.532 48.624C677.94 46.8 675.06 45.264 672.372 43.44C669.972 41.904 667.284 39.984 666.036 37.296C664.692 34.416 665.748 31.344 667.284 28.848C668.916 26.352 671.028 24.144 673.332 22.224C674.58 21.264 676.212 20.016 677.46 19.056C678.612 19.152 679.956 19.248 680.724 19.248C684.084 19.44 687.348 19.728 690.612 20.016C693.876 20.304 697.236 20.496 700.404 20.976C700.308 21.936 700.116 22.896 700.98 23.664C701.748 24.432 702.9 24.624 703.956 24.624C706.164 24.816 708.372 24.432 710.484 24.144C711.54 23.952 715.38 23.568 714.804 21.84C714.516 20.976 713.172 20.784 712.404 20.688C711.252 20.496 710.196 20.4 709.044 20.304C706.932 20.016 704.82 19.92 702.612 19.632C704.244 16.848 708.66 12.144 710.004 10.608C711.252 9.07199 712.788 7.632 713.748 5.904C714.228 5.232 714.612 4.368 714.324 3.504C714.132 2.832 713.364 2.544 712.692 2.44799C710.772 2.16 708.564 2.832 706.74 3.408C698.964 5.712 691.476 9.264 684.372 13.104C682.068 14.352 679.284 16.08 676.98 17.616C675.636 17.616 674.484 17.616 673.524 17.616C669.396 17.616 665.172 17.808 661.044 18.288C652.788 19.152 644.628 21.072 636.564 23.088C628.5 25.104 620.436 27.408 612.468 29.904C608.436 31.056 604.404 32.4 600.468 33.936C596.724 35.28 592.692 36.72 589.236 38.928C588.468 39.408 587.7 39.984 587.028 40.656C586.644 41.136 585.78 42.384 586.836 42.576C587.508 42.768 588.084 41.616 588.468 41.232C589.236 40.656 590.004 40.08 590.868 39.6C594.324 37.68 598.068 36.336 601.812 34.896C609.78 32.016 617.94 29.616 626.004 27.408C634.164 25.2 642.324 22.992 650.58 21.36C654.612 20.592 658.74 19.92 662.964 19.536C666.9 19.152 671.028 18.864 675.06 19.056ZM701.076 19.536C697.332 19.248 693.684 18.864 689.94 18.48C688.212 18.384 686.388 18.192 684.564 18C683.604 18 682.74 17.904 681.78 17.808C681.492 17.808 680.532 17.808 679.476 17.712C681.012 16.752 682.932 15.504 684.66 14.544C686.58 13.488 688.404 12.528 690.324 11.568C693.684 9.936 697.236 8.4 700.788 6.96C702.516 6.288 704.244 5.712 705.972 5.136C707.7 4.56 709.524 3.984 711.348 3.888C711.732 3.792 712.5 3.696 712.884 3.888C713.076 4.08 712.98 4.368 712.884 4.56C712.596 5.328 712.116 5.904 711.636 6.48C710.484 7.92 709.14 9.36 707.988 10.8C705.492 13.584 702.996 16.368 701.076 19.536ZM701.94 21.072C704.532 21.36 709.236 21.744 712.788 22.224C710.676 22.704 708.18 23.088 705.972 23.184C705.012 23.28 703.86 23.28 702.804 23.088C701.748 22.704 701.556 22.032 701.94 21.072ZM701.128 48.144C701.224 47.664 701.512 47.088 701.704 46.8C702.376 45.84 703.048 44.88 703.72 43.92C705.544 41.712 707.656 39.696 709.768 37.68C710.056 37.392 710.44 37.104 710.728 36.816C711.016 36.528 711.016 36.144 710.728 35.856C710.248 35.376 709.768 35.952 709.384 36.24C707.56 37.872 705.736 39.504 704.104 41.328C702.856 42.768 701.608 44.208 700.648 45.84C700.264 46.512 699.88 47.184 699.784 47.856C699.592 48.816 700.168 49.584 701.128 49.584C702.664 49.584 704.968 48.24 706.12 47.664C709.672 45.648 713.224 43.632 716.776 41.616C719.944 39.888 721.192 39.024 722.056 38.544C722.344 38.448 722.824 37.392 721.576 37.2C721.576 37.2 718.312 39.12 715.144 40.944C711.688 42.864 708.328 44.784 704.968 46.608C703.912 47.184 702.088 48.144 701.128 48.144ZM716.008 27.888C715.528 27.984 715.24 28.368 715.432 28.944C715.528 29.232 715.912 29.328 716.2 29.232C716.488 29.136 716.776 29.04 716.776 28.464C716.776 28.08 716.488 27.792 716.008 27.888ZM715.787 45.264C717.515 43.44 719.531 41.232 721.259 39.504C722.891 37.776 724.523 36.048 726.251 34.32C726.731 33.84 727.499 33.072 726.827 32.496C726.347 32.208 725.579 33.072 725.099 33.552C722.795 35.856 720.491 38.16 718.283 40.464C716.363 42.48 714.635 44.4 712.811 46.416C712.331 46.992 711.083 48.048 711.755 48.912C712.235 49.488 713.099 48.912 713.675 48.528C717.131 46.032 720.587 43.632 724.235 41.424C725.483 40.56 728.363 38.928 728.459 38.832C727.499 40.56 725.963 43.152 725.387 45.264C725.099 46.32 725.675 47.088 726.827 46.992C729.515 46.992 734.411 44.112 738.059 42.096C740.651 40.56 741.131 40.176 743.819 38.64C744.107 38.448 744.779 37.296 743.339 37.2C743.339 37.2 741.131 38.544 739.403 39.6C736.715 41.232 734.027 42.768 731.147 44.112C729.899 44.592 727.691 45.552 726.827 45.552C727.019 44.976 727.883 43.056 728.171 42.576C728.843 41.232 729.995 39.312 730.187 38.448C730.379 37.68 729.899 37.008 729.035 37.2C726.827 37.584 719.339 42.768 715.787 45.264ZM744.161 43.248C745.985 42 748.673 40.176 750.209 39.024C750.113 39.12 742.817 47.376 739.361 51.216C739.169 51.408 738.977 51.6 738.689 51.792C738.113 52.08 737.345 52.368 736.769 52.656C733.313 54.192 729.953 55.728 726.689 57.264C723.905 58.608 721.217 60.048 718.721 61.776C716.225 63.6 713.729 66.192 712.385 68.208C711.041 70.32 710.081 72.624 710.561 74.352C710.849 75.312 711.329 75.888 712.289 76.176C715.265 77.04 718.913 74.064 721.505 72.048C724.193 69.84 726.689 67.44 728.993 64.848C732.545 61.008 736.001 57.072 739.553 53.232C739.841 52.848 740.225 52.656 740.609 52.368C741.569 51.984 742.625 51.504 743.585 51.024C750.881 47.472 758.177 43.92 765.473 40.464C766.817 39.792 768.257 39.12 769.601 38.448C769.985 38.256 770.081 37.392 769.121 37.2C766.433 38.352 756.449 43.248 753.953 44.496C750.305 46.224 744.257 49.104 742.529 49.872C742.625 49.68 749.057 42.384 752.129 38.928C753.185 37.776 754.145 36.624 755.105 35.472C755.681 34.8 755.873 34.512 755.393 33.936C755.009 33.552 754.625 33.744 754.049 34.128C753.377 34.608 752.801 35.088 752.225 35.472C752.033 34.704 751.649 34.32 750.881 34.128C749.921 33.936 748.865 34.224 747.617 34.704C744.449 36.048 741.761 38.064 739.457 40.656C738.977 41.232 738.209 42.288 737.825 43.728C737.633 44.688 738.209 45.36 739.265 45.36C740.417 45.456 742.817 44.208 744.161 43.248ZM736.577 54.288C736.481 54.48 729.473 62.448 725.825 66.096C723.809 68.208 721.793 70.128 719.393 71.952C717.761 73.392 714.497 75.216 712.961 75.024C712.289 74.928 711.905 74.352 711.905 73.68C711.905 71.856 712.673 70.512 713.729 68.976C715.265 66.48 717.281 64.56 719.681 62.928C722.081 61.104 724.769 59.664 727.553 58.416C730.337 57.072 736.385 54.384 736.577 54.288ZM739.073 44.112C739.169 43.344 740.033 42.192 740.321 41.808C742.529 39.216 745.217 37.296 748.385 35.952C748.865 35.76 749.633 35.472 750.689 35.472C750.977 35.76 750.305 36.24 750.401 36.528C750.401 36.912 750.113 37.2 749.825 37.392C747.905 38.832 746.081 40.272 744.065 41.616C742.817 42.48 740.225 44.016 739.073 44.112ZM764.662 44.304C766.87 41.808 772.726 35.184 776.662 30.96C780.79 26.544 784.822 22.032 789.046 17.616C792.406 14.16 795.862 10.704 799.318 7.344C800.374 6.288 801.718 4.848 802.678 3.792C802.966 3.504 803.062 2.928 802.678 2.64C802.39 2.44799 802.102 2.544 801.814 2.736C800.854 3.696 799.99 4.65599 799.03 5.616C794.134 10.32 789.334 15.12 784.726 20.112C777.718 27.696 770.806 35.28 763.894 42.864C762.454 44.496 761.014 46.128 759.574 47.76C759.19 48.144 758.614 48.816 759.094 49.296C759.478 49.68 760.054 49.488 760.438 49.2C761.494 48.336 762.55 47.472 763.702 46.704C766.486 44.688 769.366 42.864 772.342 41.232C772.918 40.944 773.878 40.464 774.454 40.368C774.07 41.712 773.974 42.48 773.974 43.344C773.974 44.688 774.838 45.552 776.182 45.552C777.526 45.648 780.118 44.688 782.038 43.92C786.454 42.192 790.582 40.368 794.998 38.64C795.766 38.352 796.054 37.392 794.902 37.2C794.902 37.2 793.846 37.584 793.462 37.776C789.43 39.408 785.974 40.752 781.846 42.384C779.83 43.248 777.046 44.208 776.182 44.208C775.702 44.208 775.414 44.016 775.414 43.44C775.414 42.384 775.798 41.328 775.894 40.176C775.894 39.408 775.414 38.928 774.742 38.928C772.342 39.024 767.446 42.192 764.662 44.304Z" fill="white"/>
</svg>
